0
SECTION
2
HEADER
9
$INSUNITS
70
4
9
$ACADVER
1
AC1014
9
$HANDSEED
5
FFFF
0
ENDSEC
0
SECTION
2
TABLES
0
TABLE
2
VPORT
5
8
100
AcDbSymbolTable
0
ENDTAB
0
TABLE
2
LTYPE
5
5
100
AcDbSymbolTable
0
LTYPE
5
14
100
AcDbSymbolTableRecord
100
AcDbLinetypeTableRecord
2
BYBLOCK
70
0
0
LTYPE
5
15
100
AcDbSymbolTableRecord
100
AcDbLinetypeTableRecord
2
BYLAYER
70
0
0
ENDTAB
0
TABLE
2
LAYER
5
2
100
AcDbSymbolTable
70
2
0
LAYER
5
50
100
AcDbSymbolTableRecord
100
AcDbLayerTableRecord
2
0
70
0
6
CONTINUOUS
0
ENDTAB
0
TABLE
2
STYLE
5
3
100
AcDbSymbolTable
70
1
0
STYLE
5
11
100
AcDbSymbolTableRecord
100
AcDbTextStyleTableRecord
2
STANDARD
70
0
0
ENDTAB
0
TABLE
2
VIEW
5
6
100
AcDbSymbolTable
70
0
0
ENDTAB
0
TABLE
2
UCS
5
7
100
AcDbSymbolTable
70
0
0
ENDTAB
0
TABLE
2
APPID
5
9
100
AcDbSymbolTable
70
2
0
APPID
5
12
100
AcDbSymbolTableRecord
100
AcDbRegAppTableRecord
2
ACAD
70
0
0
ENDTAB
0
TABLE
2
DIMSTYLE
5
A
100
AcDbSymbolTable
70
1
0
ENDTAB
0
TABLE
2
BLOCK_RECORD
5
1
100
AcDbSymbolTable
70
1
0
BLOCK_RECORD
5
1F
100
AcDbSymbolTableRecord
100
AcDbBlockTableRecord
2
*MODEL_SPACE
0
BLOCK_RECORD
5
1B
100
AcDbSymbolTableRecord
100
AcDbBlockTableRecord
2
*PAPER_SPACE
0
ENDTAB
0
ENDSEC
0
SECTION
2
BLOCKS
0
BLOCK
5
20
100
AcDbEntity
100
AcDbBlockBegin
2
*MODEL_SPACE
0
ENDBLK
5
21
100
AcDbEntity
100
AcDbBlockEnd
0
BLOCK
5
1C
100
AcDbEntity
100
AcDbBlockBegin
2
*PAPER_SPACE
0
ENDBLK
5
1D
100
AcDbEntity
100
AcDbBlockEnd
0
ENDSEC
0
SECTION
2
ENTITIES
0
CIRCLE
5
100
100
AcDbEntity
8
0
100
AcDbCircle
10
-613.6689155382511
20
484.43112612777611
30
0
40
2.7499999999999956
0
CIRCLE
5
101
100
AcDbEntity
8
0
100
AcDbCircle
10
30.215084461686072
20
-45.568873872296429
30
0
40
2.7499999999999956
0
CIRCLE
5
102
100
AcDbEntity
8
0
100
AcDbCircle
10
-773.66891553828236
20
-45.568873872202225
30
0
40
2.7499999999999956
0
CIRCLE
5
103
100
AcDbEntity
8
0
100
AcDbCircle
10
-613.66891553831294
20
-45.568873872220685
30
0
40
2.7499999999999956
0
CIRCLE
5
104
100
AcDbEntity
8
0
100
AcDbCircle
10
30.215084461747573
20
484.43112612769966
30
0
40
2.7499999999999956
0
CIRCLE
5
105
100
AcDbEntity
8
0
100
AcDbCircle
10
-773.66891553825076
20
484.43112612779515
30
0
40
2.7499999999999956
0
LWPOLYLINE
5
106
100
AcDbEntity
8
0
100
AcDbPolyline
90
20
70
1
43
0.0
10
15.215084461750852
20
509.43112612770221
10
55.21508446175082
20
509.43112612769755
10
55.215084461746137
20
469.43112612769767
10
65.21508446174613
20
469.43112612769653
10
65.215084461687781
20
-30.568873872300642
10
55.215084461687795
20
-30.568873872299474
10
55.215084461683126
20
-70.568873872299221
10
15.215084461683155
20
-70.568873872294517
10
15.215084461681982
20
-80.568873872294461
10
-758.6689155383167
20
-80.568873872203739
10
-758.66891553831533
20
-70.56887387220381
10
-798.66891553831533
20
-70.568873872199092
10
-798.66891553831067
20
-30.568873872199323
10
-808.66891553831078
20
-30.568873872198168
10
-808.66891553825235
20
469.43112612779896
10
-798.66891553825235
20
469.43112612779782
10
-798.6689155382478
20
509.43112612779765
10
-758.66891553824769
20
509.43112612779294
10
-758.66891553824655
20
519.43112612779282
10
15.215084461752015
20
519.4311261277021
0
LWPOLYLINE
5
107
100
AcDbEntity
8
0
100
AcDbPolyline
90
4
70
1
43
0.0
10
-638.66891553825269
20
469.43112612777918
10
-648.66891553825269
20
469.43112612778032
10
-648.66891553831113
20
-30.568873872216905
10
-638.66891553831113
20
-30.568873872218063
0
ENDSEC
0
SECTION
2
OBJECTS
0
DICTIONARY
5
C
100
AcDbDictionary
3
ACAD_GROUP
350
D
3
ACAD_MLINESTYLE
350
17
0
DICTIONARY
5
D
100
AcDbDictionary
0
DICTIONARY
5
1A
330
C
100
AcDbDictionary
0
DICTIONARY
5
17
100
AcDbDictionary
0
ENDSEC
0
EOF
