0
SECTION
2
HEADER
9
$INSUNITS
70
4
9
$ACADVER
1
AC1014
9
$HANDSEED
5
FFFF
0
ENDSEC
0
SECTION
2
TABLES
0
TABLE
2
VPORT
5
8
100
AcDbSymbolTable
0
ENDTAB
0
TABLE
2
LTYPE
5
5
100
AcDbSymbolTable
0
LTYPE
5
14
100
AcDbSymbolTableRecord
100
AcDbLinetypeTableRecord
2
BYBLOCK
70
0
0
LTYPE
5
15
100
AcDbSymbolTableRecord
100
AcDbLinetypeTableRecord
2
BYLAYER
70
0
0
ENDTAB
0
TABLE
2
LAYER
5
2
100
AcDbSymbolTable
70
2
0
LAYER
5
50
100
AcDbSymbolTableRecord
100
AcDbLayerTableRecord
2
0
70
0
6
CONTINUOUS
0
ENDTAB
0
TABLE
2
STYLE
5
3
100
AcDbSymbolTable
70
1
0
STYLE
5
11
100
AcDbSymbolTableRecord
100
AcDbTextStyleTableRecord
2
STANDARD
70
0
0
ENDTAB
0
TABLE
2
VIEW
5
6
100
AcDbSymbolTable
70
0
0
ENDTAB
0
TABLE
2
UCS
5
7
100
AcDbSymbolTable
70
0
0
ENDTAB
0
TABLE
2
APPID
5
9
100
AcDbSymbolTable
70
2
0
APPID
5
12
100
AcDbSymbolTableRecord
100
AcDbRegAppTableRecord
2
ACAD
70
0
0
ENDTAB
0
TABLE
2
DIMSTYLE
5
A
100
AcDbSymbolTable
70
1
0
ENDTAB
0
TABLE
2
BLOCK_RECORD
5
1
100
AcDbSymbolTable
70
1
0
BLOCK_RECORD
5
1F
100
AcDbSymbolTableRecord
100
AcDbBlockTableRecord
2
*MODEL_SPACE
0
BLOCK_RECORD
5
1B
100
AcDbSymbolTableRecord
100
AcDbBlockTableRecord
2
*PAPER_SPACE
0
ENDTAB
0
ENDSEC
0
SECTION
2
BLOCKS
0
BLOCK
5
20
100
AcDbEntity
100
AcDbBlockBegin
2
*MODEL_SPACE
0
ENDBLK
5
21
100
AcDbEntity
100
AcDbBlockEnd
0
BLOCK
5
1C
100
AcDbEntity
100
AcDbBlockBegin
2
*PAPER_SPACE
0
ENDBLK
5
1D
100
AcDbEntity
100
AcDbBlockEnd
0
ENDSEC
0
SECTION
2
ENTITIES
0
CIRCLE
5
100
100
AcDbEntity
8
0
100
AcDbCircle
10
-678.66891553830737
20
123.68151664733895
30
0
40
2.7499999999999956
0
CIRCLE
5
101
100
AcDbEntity
8
0
100
AcDbCircle
10
-758.6689155383084
20
278.68151664733841
30
1.7763568394002505e-14
40
2.7499999999999956
0
CIRCLE
5
102
100
AcDbEntity
8
0
100
AcDbCircle
10
-758.66891553830726
20
433.68151664733796
30
0
40
2.7499999999999956
0
CIRCLE
5
103
100
AcDbEntity
8
0
100
AcDbCircle
10
-678.66891553830737
20
433.68151664733796
30
0
40
2.7499999999999956
0
CIRCLE
5
104
100
AcDbEntity
8
0
100
AcDbCircle
10
-678.66891553830851
20
278.68151664733847
30
0
40
2.7499999999999956
0
CIRCLE
5
105
100
AcDbEntity
8
0
100
AcDbCircle
10
-758.66891553830726
20
123.68151664733898
30
1.7763568394002505e-14
40
2.7499999999999956
0
CIRCLE
5
106
100
AcDbEntity
8
0
100
AcDbCircle
10
-613.66891553830874
20
498.6815166473375
30
0
40
2.7499999999999956
0
CIRCLE
5
107
100
AcDbEntity
8
0
100
AcDbCircle
10
-613.66891553830771
20
58.68151664733837
30
0
40
2.7499999999999956
0
CIRCLE
5
108
100
AcDbEntity
8
0
100
AcDbCircle
10
-773.6689155383076
20
58.681516647338263
30
0
40
2.7499999999999956
0
CIRCLE
5
109
100
AcDbEntity
8
0
100
AcDbCircle
10
30.215084461691255
20
58.681516647338853
30
0
40
2.7499999999999956
0
LWPOLYLINE
5
110
100
AcDbEntity
8
0
100
AcDbPolyline
90
4
70
1
43
0.0
10
-748.6689155383084
20
463.6815166473375
10
-748.6689155383076
20
93.681516647338142
10
-688.66891553830771
20
93.681516647338228
10
-688.66891553830851
20
463.68151664733762
0
LWPOLYLINE
5
111
100
AcDbEntity
8
0
100
AcDbPolyline
90
4
70
1
43
0.0
10
-758.66891553830737
20
33.681516647338285
10
-758.66891553830737
20
23.681516647338299
10
15.215084461691216
20
23.681516647338906
10
15.215084461691077
20
33.681516647338846
0
LWPOLYLINE
5
112
100
AcDbEntity
8
0
100
AcDbPolyline
90
4
70
1
43
0.0
10
-648.6689155383076
20
73.681516647338327
10
-638.6689155383076
20
73.68151664733837
10
-638.66891553830874
20
483.6815166473375
10
-648.66891553830874
20
483.6815166473375
0
CIRCLE
5
113
100
AcDbEntity
8
0
100
AcDbCircle
10
-773.66891553830851
20
498.68151664733745
30
0
40
2.7500000000000524
0
CIRCLE
5
114
100
AcDbEntity
8
0
100
AcDbCircle
10
30.215084461690218
20
498.68151664733807
30
0
40
2.7499999999999947
0
LWPOLYLINE
5
115
100
AcDbEntity
8
0
100
AcDbPolyline
90
16
70
1
43
0.0
10
20.215084461690196
20
523.68151664733796
10
55.215084461690225
20
488.68151664733807
10
55.21508446169144
20
-26.318483352661023
10
15.215084461691522
20
-26.318483352661055
10
-24.784915538308567
20
13.681516647338848
10
-558.66891553830749
20
13.681516647338427
10
-598.6689155383076
20
-26.318483352661538
10
-798.66891553830726
20
-26.318483352661701
10
-798.6689155383084
20
488.68151664733745
10
-763.6689155383084
20
523.68151664733739
10
-558.66891553830874
20
523.6815166473375
10
-558.66891553830771
20
93.681516647338285
10
-528.66891553830771
20
63.681516647338363
10
-54.78491553830861
20
63.681516647338739
10
-24.784915538308717
20
93.681516647338725
10
-24.784915538309804
20
523.68151664733796
0
ENDSEC
0
SECTION
2
OBJECTS
0
DICTIONARY
5
C
100
AcDbDictionary
3
ACAD_GROUP
350
D
3
ACAD_MLINESTYLE
350
17
0
DICTIONARY
5
D
100
AcDbDictionary
0
DICTIONARY
5
1A
330
C
100
AcDbDictionary
0
DICTIONARY
5
17
100
AcDbDictionary
0
ENDSEC
0
EOF
