0
SECTION
2
HEADER
9
$INSUNITS
70
4
9
$ACADVER
1
AC1014
9
$HANDSEED
5
FFFF
0
ENDSEC
0
SECTION
2
TABLES
0
TABLE
2
VPORT
5
8
100
AcDbSymbolTable
0
ENDTAB
0
TABLE
2
LTYPE
5
5
100
AcDbSymbolTable
0
LTYPE
5
14
100
AcDbSymbolTableRecord
100
AcDbLinetypeTableRecord
2
BYBLOCK
70
0
0
LTYPE
5
15
100
AcDbSymbolTableRecord
100
AcDbLinetypeTableRecord
2
BYLAYER
70
0
0
ENDTAB
0
TABLE
2
LAYER
5
2
100
AcDbSymbolTable
70
2
0
LAYER
5
50
100
AcDbSymbolTableRecord
100
AcDbLayerTableRecord
2
0
70
0
6
CONTINUOUS
0
ENDTAB
0
TABLE
2
STYLE
5
3
100
AcDbSymbolTable
70
1
0
STYLE
5
11
100
AcDbSymbolTableRecord
100
AcDbTextStyleTableRecord
2
STANDARD
70
0
0
ENDTAB
0
TABLE
2
VIEW
5
6
100
AcDbSymbolTable
70
0
0
ENDTAB
0
TABLE
2
UCS
5
7
100
AcDbSymbolTable
70
0
0
ENDTAB
0
TABLE
2
APPID
5
9
100
AcDbSymbolTable
70
2
0
APPID
5
12
100
AcDbSymbolTableRecord
100
AcDbRegAppTableRecord
2
ACAD
70
0
0
ENDTAB
0
TABLE
2
DIMSTYLE
5
A
100
AcDbSymbolTable
70
1
0
ENDTAB
0
TABLE
2
BLOCK_RECORD
5
1
100
AcDbSymbolTable
70
1
0
BLOCK_RECORD
5
1F
100
AcDbSymbolTableRecord
100
AcDbBlockTableRecord
2
*MODEL_SPACE
0
BLOCK_RECORD
5
1B
100
AcDbSymbolTableRecord
100
AcDbBlockTableRecord
2
*PAPER_SPACE
0
ENDTAB
0
ENDSEC
0
SECTION
2
BLOCKS
0
BLOCK
5
20
100
AcDbEntity
100
AcDbBlockBegin
2
*MODEL_SPACE
0
ENDBLK
5
21
100
AcDbEntity
100
AcDbBlockEnd
0
BLOCK
5
1C
100
AcDbEntity
100
AcDbBlockBegin
2
*PAPER_SPACE
0
ENDBLK
5
1D
100
AcDbEntity
100
AcDbBlockEnd
0
ENDSEC
0
SECTION
2
ENTITIES
0
CIRCLE
5
100
100
AcDbEntity
8
0
100
AcDbCircle
10
-613.6689155382503
20
484.43112612777696
30
0
40
2.7499999999999947
0
CIRCLE
5
101
100
AcDbEntity
8
0
100
AcDbCircle
10
-613.66891553831283
20
-45.568873872219868
30
0
40
2.7499999999999947
0
LWPOLYLINE
5
102
100
AcDbEntity
8
0
100
AcDbPolyline
90
26
70
1
43
0.0
10
-102.28491553826238
20
389.43112612771671
10
-104.78491553826208
20
391.93112612771699
10
-104.78491553826002
20
409.43112612771694
10
-144.78491553825995
20
409.43112612772177
10
-144.784915538262
20
391.93112612772183
10
-147.28491553826234
20
389.43112612772211
10
-436.16891553826167
20
389.4311261277565
10
-438.66891553826144
20
391.93112612775673
10
-438.66891553825928
20
409.43112612775656
10
-478.66891553825923
20
409.43112612776139
10
-478.66891553826133
20
391.93112612776144
10
-481.16891553826156
20
389.43112612776179
10
-528.66891553826144
20
389.43112612776753
10
-558.66891553826508
20
359.43112612777111
10
-558.66891553831567
20
-70.568873872226277
10
-763.66891553831522
20
-70.568873872201891
10
-798.66891553831113
20
-35.568873872198026
10
-798.66891553825099
20
474.43112612779908
10
-763.66891553824701
20
509.43112612779476
10
20.215084461751545
20
509.43112612770153
10
55.215084461747367
20
474.43112612769755
10
55.215084461687226
20
-35.56887387229947
10
20.215084461683123
20
-70.568873872295129
10
-24.784915538316813
20
-70.568873872289686
10
-24.784915538266073
20
359.43112612770761
10
-54.784915538262453
20
389.43112612771102
0
CIRCLE
5
103
100
AcDbEntity
8
0
100
AcDbCircle
10
-448.66891553825775
20
421.43084327316262
30
0
40
2.7499999999999987
0
CIRCLE
5
104
100
AcDbEntity
8
0
100
AcDbCircle
10
-468.66891553825769
20
421.43084327316501
30
0
40
2.7499999999999987
0
CIRCLE
5
105
100
AcDbEntity
8
0
100
AcDbCircle
10
-134.78491553825856
20
421.43084327312533
30
0
40
2.7499999999999987
0
CIRCLE
5
106
100
AcDbEntity
8
0
100
AcDbCircle
10
-114.7849155382586
20
421.43084327312295
30
0
40
2.7499999999999987
0
LWPOLYLINE
5
107
100
AcDbEntity
8
0
100
AcDbPolyline
90
4
70
1
43
0.0
10
-638.66891553825144
20
472.86515560694801
10
-648.66891553825144
20
472.8651556069492
10
-648.66891553831033
20
-27.134844393047814
10
-638.66891553831044
20
-27.134844393049136
0
CIRCLE
5
108
100
AcDbEntity
8
0
100
AcDbCircle
10
-773.66891553831238
20
-45.568873872200854
30
0
40
2.750000000000052
0
CIRCLE
5
109
100
AcDbEntity
8
0
100
AcDbCircle
10
30.215084461686082
20
-45.568873872296471
30
0
40
2.7499999999999942
0
CIRCLE
5
110
100
AcDbEntity
8
0
100
AcDbCircle
10
-773.66891553824985
20
484.43112612779601
30
0
40
2.750000000000052
0
CIRCLE
5
111
100
AcDbEntity
8
0
100
AcDbCircle
10
30.215084461748599
20
484.4311261277004
30
0
40
2.7499999999999942
0
ENDSEC
0
SECTION
2
OBJECTS
0
DICTIONARY
5
C
100
AcDbDictionary
3
ACAD_GROUP
350
D
3
ACAD_MLINESTYLE
350
17
0
DICTIONARY
5
D
100
AcDbDictionary
0
DICTIONARY
5
1A
330
C
100
AcDbDictionary
0
DICTIONARY
5
17
100
AcDbDictionary
0
ENDSEC
0
EOF
